HIERARCHY
ROOT Hips
{
  OFFSET 0.0421244 104.207 2.34514
  CHANNELS 6 Xposition Yposition Zposition Zrotation Xrotation Yrotation
  JOINT Spine
  {
    OFFSET 0 10.1816 0.131521
    CHANNELS 6 Xposition Yposition Zposition Zrotation Xrotation Yrotation
    JOINT Spine1
    {
      OFFSET 0 10.0835 -1.0008
      CHANNELS 6 Xposition Yposition Zposition Zrotation Xrotation Yrotation
      JOINT Spine2
      {
        OFFSET 0 9.10001 -1.37342
        CHANNELS 6 Xposition Yposition Zposition Zrotation Xrotation Yrotation
        JOINT Neck
        {
          OFFSET 0 16.6717 -2.51617
          CHANNELS 6 Xposition Yposition Zposition Zrotation Xrotation Yrotation
          JOINT Head
          {
            OFFSET 0 9.61788 1.68501
            CHANNELS 6 Xposition Yposition Zposition Zrotation Xrotation Yrotation
            JOINT HeadTop_End
            {
              OFFSET 0 17.8152 2.58499
              CHANNELS 6 Xposition Yposition Zposition Zrotation Xrotation Yrotation
              End Site
              {
                OFFSET 0 0 0
              }
            }
            JOINT LeftEye
            {
              OFFSET 3.06756 6.40951 9.28355
              CHANNELS 6 Xposition Yposition Zposition Zrotation Xrotation Yrotation
              End Site
              {
                OFFSET 0 0 0
              }
            }
            JOINT RightEye
            {
              OFFSET -3.06755 6.4095 9.28355
              CHANNELS 6 Xposition Yposition Zposition Zrotation Xrotation Yrotation
              End Site
              {
                OFFSET 0 0 0
              }
            }
          }
        }
        JOINT LeftShoulder
        {
          OFFSET 4.57045 10.946 -2.62799
          CHANNELS 6 Xposition Yposition Zposition Zrotation Xrotation Yrotation
          JOINT LeftArm
          {
            OFFSET 10.5924 -0.524583 -2.23212
            CHANNELS 6 Xposition Yposition Zposition Zrotation Xrotation Yrotation
            JOINT LeftForeArm
            {
              OFFSET 27.8415 -8.94286e-05 3.74589e-05
              CHANNELS 6 Xposition Yposition Zposition Zrotation Xrotation Yrotation
              JOINT LeftHand
              {
                OFFSET 28.3288 -1.74407e-05 3.78045e-05
                CHANNELS 6 Xposition Yposition Zposition Zrotation Xrotation Yrotation
                JOINT LeftHandThumb1
                {
                  OFFSET 2.46614 -1.57505 2.68241
                  CHANNELS 6 Xposition Yposition Zposition Zrotation Xrotation Yrotation
                  JOINT LeftHandThumb2
                  {
                    OFFSET 3.2298 -1.86469 1.86468
                    CHANNELS 6 Xposition Yposition Zposition Zrotation Xrotation Yrotation
                    JOINT LeftHandThumb3
                    {
                      OFFSET 2.65257 -1.53149 1.53147
                      CHANNELS 6 Xposition Yposition Zposition Zrotation Xrotation Yrotation
                      End Site
                      {
                        OFFSET 1.95457 -1.1285 1.12849
                      }
                    }
                  }
                }
                JOINT LeftHandIndex1
                {
                  OFFSET 9.1093 -0.517083 2.26007
                  CHANNELS 6 Xposition Yposition Zposition Zrotation Xrotation Yrotation
                  JOINT LeftHandIndex2
                  {
                    OFFSET 3.67641 0 2.92425e-05
                    CHANNELS 6 Xposition Yposition Zposition Zrotation Xrotation Yrotation
                    JOINT LeftHandIndex3
                    {
                      OFFSET 2.88306 3.8512e-05 -4.27648e-05
                      CHANNELS 6 Xposition Yposition Zposition Zrotation Xrotation Yrotation
                      End Site
                      {
                        OFFSET 2.39272 3.70259e-05 3.35544e-05
                      }
                    }
                  }
                }
                JOINT LeftHandMiddle1
                {
                  OFFSET 9.5334 -3.3924e-05 1.3937e-05
                  CHANNELS 6 Xposition Yposition Zposition Zrotation Xrotation Yrotation
                  JOINT LeftHandMiddle2
                  {
                    OFFSET 3.69824 0 1.7917e-05
                    CHANNELS 6 Xposition Yposition Zposition Zrotation Xrotation Yrotation
                    JOINT LeftHandMiddle3
                    {
                      OFFSET 2.95092 -3.93761e-05 1.6448e-05
                      CHANNELS 6 Xposition Yposition Zposition Zrotation Xrotation Yrotation
                      End Site
                      {
                        OFFSET 2.8339 -3.89348e-05 0
                      }
                    }
                  }
                }
                JOINT LeftHandRing1
                {
                  OFFSET 9.10453 -0.0439395 -1.86508
                  CHANNELS 6 Xposition Yposition Zposition Zrotation Xrotation Yrotation
                  JOINT LeftHandRing2
                  {
                    OFFSET 3.15403 0 1.04257e-05
                    CHANNELS 6 Xposition Yposition Zposition Zrotation Xrotation Yrotation
                    JOINT LeftHandRing3
                    {
                      OFFSET 2.93767 -4.54586e-05 0
                      CHANNELS 6 Xposition Yposition Zposition Zrotation Xrotation Yrotation
                      End Site
                      {
                        OFFSET 2.64745 -4.98044e-05 0
                      }
                    }
                  }
                }
                JOINT LeftHandPinky1
                {
                  OFFSET 8.07778 -0.488668 -3.80607
                  CHANNELS 6 Xposition Yposition Zposition Zrotation Xrotation Yrotation
                  JOINT LeftHandPinky2
                  {
                    OFFSET 3.60003 0 -2.62388e-05
                    CHANNELS 6 Xposition Yposition Zposition Zrotation Xrotation Yrotation
                    JOINT LeftHandPinky3
                    {
                      OFFSET 2.11421 1.95383e-05 0
                      CHANNELS 6 Xposition Yposition Zposition Zrotation Xrotation Yrotation
                      End Site
                      {
                        OFFSET 1.97568 1.24057e-05 -4.43014e-05
                      }
                    }
                  }
                }
              }
            }
          }
        }
        JOINT RightShoulder
        {
          OFFSET -4.56997 10.9462 -2.62802
          CHANNELS 6 Xposition Yposition Zposition Zrotation Xrotation Yrotation
          JOINT RightArm
          {
            OFFSET -10.5928 -0.524798 -2.2321
            CHANNELS 6 Xposition Yposition Zposition Zrotation Xrotation Yrotation
            JOINT RightForeArm
            {
              OFFSET -27.8415 -3.30792e-05 1.16763e-05
              CHANNELS 6 Xposition Yposition Zposition Zrotation Xrotation Yrotation
              JOINT RightHand
              {
                OFFSET -28.3288 0 5.5816e-05
                CHANNELS 6 Xposition Yposition Zposition Zrotation Xrotation Yrotation
                JOINT RightHandPinky1
                {
                  OFFSET -8.07667 -0.488459 -3.80601
                  CHANNELS 6 Xposition Yposition Zposition Zrotation Xrotation Yrotation
                  JOINT RightHandPinky2
                  {
                    OFFSET -3.60003 3.96767e-05 5.08144e-05
                    CHANNELS 6 Xposition Yposition Zposition Zrotation Xrotation Yrotation
                    JOINT RightHandPinky3
                    {
                      OFFSET -2.11421 1.51379e-05 1.47938e-05
                      CHANNELS 6 Xposition Yposition Zposition Zrotation Xrotation Yrotation
                      End Site
                      {
                        OFFSET -1.97568 -1.8522e-05 0
                      }
                    }
                  }
                }
                JOINT RightHandRing1
                {
                  OFFSET -9.10359 -0.0439143 -1.86507
                  CHANNELS 6 Xposition Yposition Zposition Zrotation Xrotation Yrotation
                  JOINT RightHandRing2
                  {
                    OFFSET -3.15403 2.39973e-05 4.88512e-05
                    CHANNELS 6 Xposition Yposition Zposition Zrotation Xrotation Yrotation
                    JOINT RightHandRing3
                    {
                      OFFSET -2.93767 -4.16007e-05 -3.96606e-05
                      CHANNELS 6 Xposition Yposition Zposition Zrotation Xrotation Yrotation
                      End Site
                      {
                        OFFSET -2.64745 2.46082e-05 0
                      }
                    }
                  }
                }
                JOINT RightHandMiddle1
                {
                  OFFSET -9.5325 -1.63123e-05 1.67918e-05
                  CHANNELS 6 Xposition Yposition Zposition Zrotation Xrotation Yrotation
                  JOINT RightHandMiddle2
                  {
                    OFFSET -3.69824 1.5067e-05 -2.25455e-05
                    CHANNELS 6 Xposition Yposition Zposition Zrotation Xrotation Yrotation
                    JOINT RightHandMiddle3
                    {
                      OFFSET -2.95092 0 0
                      CHANNELS 6 Xposition Yposition Zposition Zrotation Xrotation Yrotation
                      End Site
                      {
                        OFFSET -2.8339 0 5.37877e-05
                      }
                    }
                  }
                }
                JOINT RightHandIndex1
                {
                  OFFSET -9.10828 -0.516789 2.26012
                  CHANNELS 6 Xposition Yposition Zposition Zrotation Xrotation Yrotation
                  JOINT RightHandIndex2
                  {
                    OFFSET -3.67641 1.92272e-05 3.23557e-05
                    CHANNELS 6 Xposition Yposition Zposition Zrotation Xrotation Yrotation
                    JOINT RightHandIndex3
                    {
                      OFFSET -2.88306 -4.96012e-05 4.0449e-05
                      CHANNELS 6 Xposition Yposition Zposition Zrotation Xrotation Yrotation
                      End Site
                      {
                        OFFSET -2.39272 2.68147e-05 2.80201e-05
                      }
                    }
                  }
                }
                JOINT RightHandThumb1
                {
                  OFFSET -2.46481 -1.57271 2.68263
                  CHANNELS 6 Xposition Yposition Zposition Zrotation Xrotation Yrotation
                  JOINT RightHandThumb2
                  {
                    OFFSET -3.22977 -1.86471 1.86472
                    CHANNELS 6 Xposition Yposition Zposition Zrotation Xrotation Yrotation
                    JOINT RightHandThumb3
                    {
                      OFFSET -2.65261 -1.53145 1.53145
                      CHANNELS 6 Xposition Yposition Zposition Zrotation Xrotation Yrotation
                      End Site
                      {
                        OFFSET -1.95458 -1.12846 1.12851
                      }
                    }
                  }
                }
              }
            }
          }
        }
      }
    }
  }
  JOINT LeftUpLeg
  {
    OFFSET 8.20778 -6.75171 -1.59956
    CHANNELS 6 Xposition Yposition Zposition Zrotation Xrotation Yrotation
    JOINT LeftLeg
    {
      OFFSET 0 -44.3705 0.284643
      CHANNELS 6 Xposition Yposition Zposition Zrotation Xrotation Yrotation
      JOINT LeftFoot
      {
        OFFSET 0 -44.4279 -2.98219
        CHANNELS 6 Xposition Yposition Zposition Zrotation Xrotation Yrotation
        JOINT LeftToeBase
        {
          OFFSET 0 -8.72867 10.7106
          CHANNELS 6 Xposition Yposition Zposition Zrotation Xrotation Yrotation
          End Site
          {
            OFFSET 0 -0.000676683 9.27814
          }
        }
      }
    }
  }
  JOINT RightUpLeg
  {
    OFFSET -8.2078 -6.75166 -1.59956
    CHANNELS 6 Xposition Yposition Zposition Zrotation Xrotation Yrotation
    JOINT RightLeg
    {
      OFFSET 0 -44.3705 0.286156
      CHANNELS 6 Xposition Yposition Zposition Zrotation Xrotation Yrotation
      JOINT RightFoot
      {
        OFFSET 0 -44.4277 -2.98379
        CHANNELS 6 Xposition Yposition Zposition Zrotation Xrotation Yrotation
        JOINT RightToeBase
        {
          OFFSET 0 -8.72867 10.7106
          CHANNELS 6 Xposition Yposition Zposition Zrotation Xrotation Yrotation
          End Site
          {
            OFFSET 0 -0.000676369 9.27812
          }
        }
      }
    }
  }
}
MOTION
Frames:	4
Frame Time:	0.0333333
0.355437 104.201 3.80671 -0.383225 -2.07586 -1.57681 9.23415e-06 10.1816 0.131521 -0.59014 0.162527 -0.291207 2.5194e-07 10.0835 -1.0008 -0.680003 0.326168 -0.596296 3.45749e-07 9.10001 -1.37342 -0.679942 0.325475 -0.596898 6.33429e-07 16.6717 -2.51617 4.34971 3.15552 0.267122 -4.24232e-07 9.61788 1.68501 0.551564 3.37895 5.81363 -6.50824e-07 17.8152 2.58499 4.96962e-16 7.95139e-16 7.95139e-16 3.06756 6.40951 9.28355 4.96962e-16 7.95139e-16 7.95139e-16 -3.06755 6.4095 9.28355 4.96962e-16 7.95139e-16 7.95139e-16 4.57045 10.946 -2.62799 -12 1.71356 -3.22956 10.5924 -0.524583 -2.23212 -60.1985 43.4116 -4.69408 27.8415 -8.94286e-05 3.74589e-05 -0.000198546 8.79325e-07 -16.8745 28.3288 -1.74407e-05 3.78045e-05 12.0121 -20.4193 11.2791 2.46614 -1.57505 2.68241 11.5375 -0.49605 9.69177 3.2298 -1.86469 1.86468 -1.47745 1.75328 25.6132 2.65257 -1.53149 1.53147 5.04612 -0.58744 4.38989 9.1093 -0.517083 2.26007 -19.3542 -0.389423 2.28343 3.67641 -6.93914e-06 2.92425e-05 -19.3543 -0.389422 2.28342 2.88306 3.8512e-05 -4.27648e-05 -16.7123 -0.29104 1.98122 9.5334 -3.3924e-05 1.3937e-05 -28.4794 -0.834221 3.28642 3.69824 1.96136e-06 1.7917e-05 -28.5113 -0.836057 3.28978 2.95092 -3.93761e-05 1.6448e-05 -25.8554 -0.689998 3.00536 9.10453 -0.0439395 -1.86508 -37.7473 -1.44347 4.22067 3.15403 -6.55347e-06 1.04257e-05 -37.7473 -1.44346 4.22066 2.93767 -4.54586e-05 -6.86476e-06 -35.1096 -1.25474 3.96489 8.07778 -0.488668 -3.80607 -44.4294 -1.95424 8.94307 3.60003 -2.25222e-06 -2.62388e-05 -45.4717 0.862349 2.01435 2.11421 1.95383e-05 -2.86442e-06 -42.2982 -1.79614 4.64079 -4.56997 10.9462 -2.62802 12 -1.01102 -5.7848 -10.5928 -0.524798 -2.2321 68.5399 -19.5838 64.1573 -27.8415 -3.30792e-05 1.16763e-05 -2.2873e-05 1.48443e-05 73.6182 -28.3288 -1.58142e-07 5.5816e-05 -37.828 -7.79593 11.1389 -8.07667 -0.488459 -3.80601 10.5105 -0.116718 -1.27047 -3.60003 3.96767e-05 5.08144e-05 10.5105 -0.116427 -1.26731 -2.11421 1.51379e-05 1.47938e-05 5.25557 -0.0292367 -0.63713 -9.10359 -0.0439143 -1.86507 10.5105 -0.116721 -1.26888 -3.15403 2.39973e-05 4.88512e-05 10.5105 -0.116714 -1.26888 -2.93767 -4.16007e-05 -3.96606e-05 5.25557 -0.0292367 -0.63713 -9.5325 -1.63123e-05 1.67918e-05 10.5105 -0.116721 -1.26888 -3.69824 1.5067e-05 -2.25455e-05 10.5105 -0.116714 -1.26888 -2.95092 -3.11325e-07 -3.03403e-07 5.25556 -0.0292329 -0.639154 -9.10828 -0.516789 2.26012 10.5105 -0.116721 -1.26888 -3.67641 1.92272e-05 3.23557e-05 10.5105 -0.116714 -1.26888 -2.88306 -4.96012e-05 4.0449e-05 5.25557 -0.0292367 -0.63713 -2.46481 -1.57271 2.68263 -12.2499 -1.00017 -7.61858 -3.22977 -1.86471 1.86472 -5.94038 5.40448 -18.0987 -2.65261 -1.53145 1.53145 -5.09541 -1.1574 -4.89263 8.20778 -6.75171 -1.59956 0.795057 -1.37592 5.24714 -4.11016e-07 -44.3705 0.284643 0.282425 6.22847 -4.66028 4.71639e-07 -44.4279 -2.98219 -0.455708 -2.30101 0.0479347 -2.96099e-06 -8.72867 10.7106 0.246506 -0.335785 0.000845649 -8.2078 -6.75166 -1.59956 -0.445197 -1.09614 -7.94087 8.43557e-08 -44.3705 0.286156 -1.46462 5.33033 5.87227 9.64458e-07 -44.4277 -2.98379 2.32087 -1.6995 -0.097453 -2.36044e-06 -8.72867 10.7106 -0.465881 -0.350737 -0.000872777 
0.263364 104.21 3.68317 -0.355155 -2.05766 -2.16324 9.23415e-06 10.1816 0.131521 -0.526421 0.169883 -0.196354 2.5194e-07 10.0835 -1.0008 -0.63029 0.340645 -0.403078 3.45749e-07 9.10001 -1.37342 -0.630249 0.340255 -0.4036 6.33429e-07 16.6717 -2.51617 4.44773 3.17774 0.290534 -4.24232e-07 9.61788 1.68501 0.714648 3.49401 5.93204 -6.50824e-07 17.8152 2.58499 6.4605e-16 7.95139e-16 3.97569e-16 3.06756 6.40951 9.28355 6.4605e-16 7.95139e-16 3.97569e-16 -3.06755 6.4095 9.28355 6.4605e-16 7.95139e-16 3.97569e-16 4.57045 10.946 -2.62799 -12 1.68473 -3.09002 10.5924 -0.524583 -2.23212 -60.594 43.4693 -3.9279 27.8415 -8.94286e-05 3.74589e-05 -0.000226075 4.39371e-06 -16.1077 28.3288 -1.74407e-05 3.78045e-05 11.4828 -19.7614 12.0875 2.46614 -1.57505 2.68241 11.5375 -0.49605 9.69177 3.2298 -1.86469 1.86468 -1.47745 1.75328 25.6132 2.65257 -1.53149 1.53147 5.04612 -0.58744 4.38989 9.1093 -0.517083 2.26007 -19.3542 -0.389423 2.28343 3.67641 -6.93914e-06 2.92425e-05 -19.3543 -0.389422 2.28342 2.88306 3.8512e-05 -4.27648e-05 -16.7123 -0.29104 1.98122 9.5334 -3.3924e-05 1.3937e-05 -28.4794 -0.834221 3.28642 3.69824 1.96136e-06 1.7917e-05 -28.5113 -0.836057 3.28978 2.95092 -3.93761e-05 1.6448e-05 -25.8554 -0.689998 3.00536 9.10453 -0.0439395 -1.86508 -37.7473 -1.44347 4.22067 3.15403 -6.55347e-06 1.04257e-05 -37.7473 -1.44346 4.22066 2.93767 -4.54586e-05 -6.86476e-06 -35.1096 -1.25474 3.96489 8.07778 -0.488668 -3.80607 -44.4294 -1.95424 8.94307 3.60003 -2.25222e-06 -2.62388e-05 -45.4717 0.862349 2.01435 2.11421 1.95383e-05 -2.86442e-06 -42.2982 -1.79614 4.64079 -4.56997 10.9462 -2.62802 12 -1.03268 -5.82796 -10.5928 -0.524798 -2.2321 67.3024 -18.0305 63.3834 -27.8415 -3.30792e-05 1.16763e-05 -5.34981e-05 7.00995e-07 78.4356 -28.3288 -1.58142e-07 5.5816e-05 -32.4269 -0.951478 13.5801 -8.07667 -0.488459 -3.80601 10.5104 -0.116714 -1.27048 -3.60003 3.96767e-05 5.08144e-05 10.5105 -0.116432 -1.26731 -2.11421 1.51379e-05 1.47938e-05 5.25556 -0.0292493 -0.637115 -9.10359 -0.0439143 -1.86507 10.5104 -0.116712 -1.26889 -3.15403 2.39973e-05 4.88512e-05 10.5105 -0.116725 -1.26888 -2.93767 -4.16007e-05 -3.96606e-05 5.25556 -0.0292493 -0.637115 -9.5325 -1.63123e-05 1.67918e-05 10.5104 -0.116712 -1.26889 -3.69824 1.5067e-05 -2.25455e-05 10.5105 -0.116725 -1.26888 -2.95092 -3.11324e-07 -3.03403e-07 5.25556 -0.029253 -0.639136 -9.10828 -0.516789 2.26012 10.5104 -0.116712 -1.26889 -3.67641 1.92272e-05 3.23557e-05 10.5105 -0.116725 -1.26888 -2.88306 -4.96012e-05 4.0449e-05 5.25556 -0.0292493 -0.637115 -2.46481 -1.57271 2.68263 -12.2539 -0.996577 -7.6473 -3.22977 -1.86471 1.86472 -5.94189 5.40786 -18.1268 -2.65261 -1.53145 1.53145 -5.09681 -1.15539 -4.90669 8.20778 -6.75171 -1.59956 0.723813 -1.29602 5.67686 -4.11016e-07 -44.3705 0.284643 0.455025 5.97515 -4.52409 4.71639e-07 -44.4279 -2.98219 -0.588418 -2.1415 0.0514702 -2.96099e-06 -8.72867 10.7106 0.227275 -0.359009 0.000950767 -8.2078 -6.75166 -1.59956 -0.519735 -1.2722 -7.39532 8.43557e-08 -44.3705 0.286156 -1.26966 5.39945 5.92544 9.64458e-07 -44.4277 -2.98379 2.2131 -1.62304 -0.0978536 -2.36044e-06 -8.72867 10.7106 -0.443728 -0.325402 -0.000728154 
0.153756 104.221 3.55562 -0.350158 -1.99989 -2.41014 9.23415e-06 10.1816 0.131521 -0.486303 0.167731 -0.140078 2.5194e-07 10.0835 -1.0008 -0.596877 0.335752 -0.287826 3.45749e-07 9.10001 -1.37342 -0.596849 0.335503 -0.288288 6.33429e-07 16.6717 -2.51617 4.57818 3.26274 0.246165 -4.24232e-07 9.61788 1.68501 1.14729 3.54027 5.80571 -6.50824e-07 17.8152 2.58499 -9.93923e-16 -7.95139e-16 -7.95139e-16 3.06756 6.40951 9.28355 -9.93923e-16 -7.95139e-16 -7.95139e-16 -3.06755 6.4095 9.28355 -9.93923e-16 -7.95139e-16 -7.95139e-16 4.57045 10.946 -2.62799 -12 1.67822 -3.00244 10.5924 -0.524583 -2.23212 -61.1698 43.1695 -3.0448 27.8415 -8.94286e-05 3.74589e-05 -0.000224969 6.41133e-06 -15.7432 28.3288 -1.74407e-05 3.78045e-05 11.4466 -19.792 13.1269 2.46614 -1.57505 2.68241 11.5375 -0.49605 9.69177 3.2298 -1.86469 1.86468 -1.47745 1.75328 25.6132 2.65257 -1.53149 1.53147 5.04612 -0.58744 4.38989 9.1093 -0.517083 2.26007 -19.3542 -0.389423 2.28343 3.67641 -6.93914e-06 2.92425e-05 -19.3543 -0.389422 2.28342 2.88306 3.8512e-05 -4.27648e-05 -16.7123 -0.29104 1.98122 9.5334 -3.3924e-05 1.3937e-05 -28.4794 -0.834221 3.28642 3.69824 1.96136e-06 1.7917e-05 -28.5113 -0.836057 3.28978 2.95092 -3.93761e-05 1.6448e-05 -25.8554 -0.689998 3.00536 9.10453 -0.0439395 -1.86508 -37.7473 -1.44347 4.22067 3.15403 -6.55347e-06 1.04257e-05 -37.7473 -1.44346 4.22066 2.93767 -4.54586e-05 -6.86476e-06 -35.1096 -1.25474 3.96489 8.07778 -0.488668 -3.80607 -44.4294 -1.95424 8.94307 3.60003 -2.25222e-06 -2.62388e-05 -45.4717 0.862349 2.01435 2.11421 1.95383e-05 -2.86442e-06 -42.2982 -1.79614 4.64079 -4.56997 10.9462 -2.62802 12 -1.0265 -5.83114 -10.5928 -0.524798 -2.2321 66.2294 -17.2937 62.7222 -27.8415 -3.30792e-05 1.16763e-05 -7.33354e-06 -2.22652e-06 83.3251 -28.3288 -1.58142e-07 5.5816e-05 -22.1775 7.58862 16.1601 -8.07667 -0.488459 -3.80601 10.5104 -0.116712 -1.27047 -3.60003 3.96767e-05 5.08144e-05 10.5105 -0.116425 -1.26732 -2.11421 1.51379e-05 1.47938e-05 5.25554 -0.0292525 -0.637114 -9.10359 -0.0439143 -1.86507 10.5104 -0.116713 -1.26888 -3.15403 2.39973e-05 4.88512e-05 10.5104 -0.116713 -1.26888 -2.93767 -4.16007e-05 -3.96606e-05 5.25554 -0.0292525 -0.637114 -9.5325 -1.63123e-05 1.67918e-05 10.5104 -0.116713 -1.26888 -3.69824 1.5067e-05 -2.25455e-05 10.5104 -0.116713 -1.26888 -2.95092 -3.11325e-07 -3.03403e-07 5.25556 -0.0292569 -0.639123 -9.10828 -0.516789 2.26012 10.5104 -0.116713 -1.26888 -3.67641 1.92272e-05 3.23557e-05 10.5104 -0.116713 -1.26888 -2.88306 -4.96012e-05 4.0449e-05 5.25554 -0.0292525 -0.637114 -2.46481 -1.57271 2.68263 -12.2536 -0.996867 -7.64501 -3.22977 -1.86471 1.86472 -5.94177 5.40756 -18.1245 -2.65261 -1.53145 1.53145 -5.09668 -1.15554 -4.90553 8.20778 -6.75171 -1.59956 0.711898 -1.2951 6.00583 -4.11016e-07 -44.3705 0.284643 0.603765 5.72633 -4.61603 4.71639e-07 -44.4279 -2.98219 -0.722099 -1.97205 0.0563658 -2.96099e-06 -8.72867 10.7106 0.19104 -0.367175 0.000916153 -8.2078 -6.75166 -1.59956 -0.494476 -1.3557 -6.90155 8.43557e-08 -44.3705 0.286156 -1.14821 5.2588 5.71224 9.64458e-07 -44.4277 -2.98379 2.1432 -1.4883 -0.100131 -2.36044e-06 -8.72867 10.7106 -0.399416 -0.302518 -0.000655712 
-0.00127255 104.223 3.44161 -0.344994 -1.98111 -2.35918 9.23415e-06 10.1816 0.131521 -0.478929 0.192195 -0.142688 2.5194e-07 10.0835 -1.0008 -0.613808 0.384216 -0.291018 3.45749e-07 9.10001 -1.37342 -0.613782 0.383983 -0.291484 6.33429e-07 16.6717 -2.51617 4.75078 3.26635 0.163668 -4.24232e-07 9.61788 1.68501 1.74793 3.43091 5.52526 -6.50824e-07 17.8152 2.58499 2.48481e-16 1.59028e-15 3.97569e-16 3.06756 6.40951 9.28355 2.48481e-16 1.59028e-15 3.97569e-16 -3.06755 6.4095 9.28355 2.48481e-16 1.59028e-15 3.97569e-16 4.57045 10.946 -2.62799 -12 1.69458 -2.99379 10.5924 -0.524583 -2.23212 -61.8549 42.6522 -2.0315 27.8415 -8.94286e-05 3.74589e-05 -0.000194328 -4.41074e-06 -15.9002 28.3288 -1.74407e-05 3.78045e-05 11.5488 -20.1474 13.893 2.46614 -1.57505 2.68241 11.5375 -0.49605 9.69177 3.2298 -1.86469 1.86468 -1.47745 1.75328 25.6132 2.65257 -1.53149 1.53147 5.04612 -0.58744 4.38989 9.1093 -0.517083 2.26007 -19.3542 -0.389423 2.28343 3.67641 -6.93914e-06 2.92425e-05 -19.3543 -0.389422 2.28342 2.88306 3.8512e-05 -4.27648e-05 -16.7123 -0.29104 1.98122 9.5334 -3.3924e-05 1.3937e-05 -28.4794 -0.834221 3.28642 3.69824 1.96136e-06 1.7917e-05 -28.5113 -0.836057 3.28978 2.95092 -3.93761e-05 1.6448e-05 -25.8554 -0.689998 3.00536 9.10453 -0.0439395 -1.86508 -37.7473 -1.44347 4.22067 3.15403 -6.55347e-06 1.04257e-05 -37.7473 -1.44346 4.22066 2.93767 -4.54586e-05 -6.86476e-06 -35.1096 -1.25474 3.96489 8.07778 -0.488668 -3.80607 -44.4294 -1.95424 8.94307 3.60003 -2.25222e-06 -2.62388e-05 -45.4717 0.862349 2.01435 2.11421 1.95383e-05 -2.86442e-06 -42.2982 -1.79614 4.64079 -4.56997 10.9462 -2.62802 12 -1.01635 -5.83163 -10.5928 -0.524798 -2.2321 61.3374 -14.3581 60.8801 -27.8415 -3.30792e-05 1.16763e-05 8.87644e-05 -1.84082e-05 88.0017 -28.3288 -1.58142e-07 5.5816e-05 -15.7413 11.7556 20.2667 -8.07667 -0.488459 -3.80601 10.511 -0.116716 -1.27055 -3.60003 3.96767e-05 5.08144e-05 10.511 -0.116436 -1.26738 -2.11421 1.51379e-05 1.47938e-05 5.25581 -0.0292437 -0.637149 -9.10359 -0.0439143 -1.86507 10.511 -0.116717 -1.26895 -3.15403 2.39973e-05 4.88512e-05 10.511 -0.116726 -1.26895 -2.93767 -4.16007e-05 -3.96606e-05 5.25581 -0.0292437 -0.637149 -9.5325 -1.63123e-05 1.67918e-05 10.511 -0.116717 -1.26895 -3.69824 1.5067e-05 -2.25455e-05 10.511 -0.116726 -1.26895 -2.95092 -3.11324e-07 -3.03403e-07 5.25581 -0.0292432 -0.639171 -9.10828 -0.516789 2.26012 10.511 -0.116717 -1.26895 -3.67641 1.92272e-05 3.23557e-05 10.511 -0.116726 -1.26895 -2.88306 -4.96012e-05 4.0449e-05 5.25581 -0.0292437 -0.637149 -2.46481 -1.57271 2.68263 -12.2535 -0.99692 -7.64452 -3.22977 -1.86471 1.86472 -5.94175 5.40751 -18.124 -2.65261 -1.53145 1.53145 -5.09665 -1.15557 -4.9053 8.20778 -6.75171 -1.59956 0.790189 -1.32123 6.17192 -4.11016e-07 -44.3705 0.284643 0.646946 5.58868 -4.83911 4.71639e-07 -44.4279 -2.98219 -0.831862 -1.86731 0.0609922 -2.96099e-06 -8.72867 10.7106 0.129474 -0.362345 0.000677214 -8.2078 -6.75166 -1.59956 -0.429804 -1.39855 -6.5207 8.43557e-08 -44.3705 0.286156 -1.05294 5.20258 5.33104 9.64458e-07 -44.4277 -2.98379 2.06061 -1.45359 -0.100261 -2.36044e-06 -8.72867 10.7106 -0.342834 -0.271461 -0.000561077 
